<?xml version="1.0" standalone="no"?>
<!DOCTYPE svg PUBLIC "-//W3C//DTD SVG 20010904//EN"
 "http://www.w3.org/TR/2001/REC-SVG-20010904/DTD/svg10.dtd">
<svg version="1.0" xmlns="http://www.w3.org/2000/svg"
 width="599.000000pt" height="235.000000pt" viewBox="0 0 599.000000 235.000000"
 preserveAspectRatio="xMidYMid meet">

<g transform="translate(0.000000,235.000000) scale(0.100000,-0.100000)"
fill="#000000" stroke="none">
<path d="M1916 1619 c-33 -5 -91 -24 -133 -45 -277 -137 -347 -474 -144 -696
175 -192 461 -199 655 -17 180 168 193 422 32 605 -104 118 -254 174 -410 153z
m179 -38 c129 -56 221 -305 186 -506 -32 -180 -137 -306 -271 -322 -137 -16
-254 73 -311 238 -33 94 -33 266 0 364 36 109 91 188 154 222 67 35 166 36
242 4z"/>
<path d="M3750 1620 c-101 -13 -209 -70 -286 -152 -88 -93 -118 -178 -112
-316 3 -83 8 -107 35 -165 57 -120 176 -215 312 -247 71 -17 190 -8 263 20
244 91 365 369 260 593 -85 183 -276 290 -472 267z m181 -46 c57 -28 116 -112
150 -211 32 -91 34 -278 5 -366 -29 -88 -101 -186 -159 -216 -212 -108 -426
77 -429 372 -2 190 57 339 161 412 70 48 186 52 272 9z"/>
<path d="M630 1599 c0 -4 15 -10 33 -13 19 -3 47 -20 63 -37 l29 -30 3 -327
c2 -233 -1 -334 -9 -354 -16 -38 -55 -68 -90 -68 -16 0 -29 -5 -29 -11 0 -7
93 -9 303 -7 299 3 302 3 352 28 74 37 108 92 113 181 7 125 -55 212 -175 243
l-48 13 42 21 c23 12 54 38 70 59 25 33 28 45 28 113 0 68 -3 81 -27 112 -53
69 -70 72 -381 78 -152 3 -277 2 -277 -1z m470 -41 c87 -60 104 -204 34 -288
-29 -34 -64 -46 -161 -55 l-73 -7 0 186 0 186 84 0 c70 0 88 -4 116 -22z m21
-380 c55 -19 86 -48 108 -99 24 -56 28 -144 7 -192 -38 -92 -174 -143 -271
-103 -57 24 -65 53 -65 241 l0 165 94 0 c51 0 108 -5 127 -12z"/>
<path d="M4978 1601 c-6 -2 11 -11 38 -20 82 -27 85 -39 82 -351 l-3 -264
-249 317 -248 317 -127 -1 c-124 0 -125 -1 -80 -14 88 -28 84 -10 84 -407 l0
-350 -33 -29 c-18 -16 -43 -29 -57 -29 -13 0 -27 -5 -30 -10 -4 -6 45 -10 139
-10 91 0 146 4 146 10 0 6 -13 10 -29 10 -39 0 -78 34 -91 78 -7 24 -10 144
-8 336 l3 299 290 -366 c177 -223 297 -366 308 -366 16 -1 17 23 17 372 0 434
-1 430 85 459 l50 17 -138 3 c-75 2 -142 1 -149 -1z"/>
<path d="M2540 1543 c0 -32 -3 -82 -6 -110 -8 -61 10 -75 21 -17 9 53 75 119
142 144 48 18 74 20 204 18 l149 -3 -270 -405 c-148 -223 -270 -408 -270 -412
0 -5 166 -8 369 -8 l369 0 6 48 c15 125 18 222 7 222 -6 0 -11 -9 -11 -20 0
-30 -35 -95 -76 -140 -60 -66 -119 -82 -323 -88 l-174 -5 23 39 c13 22 76 118
140 214 195 293 359 547 366 564 6 15 -24 16 -330 16 l-336 0 0 -57z"/>
</g>
</svg>
